<?xml version="1.0" encoding="utf-8"?>
<!-- Generator: Adobe Illustrator 23.0.3, SVG Export Plug-In . SVG Version: 6.00 Build 0)  -->
<svg version="1.1" id="Layer_1" xmlns="http://www.w3.org/2000/svg" xmlns:xlink="http://www.w3.org/1999/xlink" x="0px" y="0px"
	 viewBox="0 0 194 34" style="enable-background:new 0 0 194 34;" xml:space="preserve">
<style type="text/css">
	.st0{fill:#F7A32F;}
	.st1{fill:#002D49;}
	.st2{fill:#E98F25;}
	.st3{fill:#FFBD46;}
	.st4{fill:#D47724;}
	.st5{fill:#BD601A;}
	.st6{enable-background:new    ;}
</style>
<g>
	<g id="MyprivateWallet_logo_">
		<g id="wallet" transform="translate(0.044)">
			<g id="Group_566" transform="translate(0 0)">
				<g id="Group_550" transform="translate(18.617 4.121)">
					<path id="Path_354" class="st0" d="M6.9,1.6C5,1.6,3.3,2.6,2.2,4.1h9.5C10.6,2.6,8.8,1.6,6.9,1.6z"/>
					<path id="Path_355" class="st1" d="M13,5.8H0.8C0.4,5.8,0,5.4,0,4.9c0-0.1,0-0.2,0.1-0.3C1.6,0.8,5.9-1,9.7,0.5
						c1.9,0.8,3.3,2.2,4.1,4.1c0.2,0.4,0,0.9-0.5,1.1C13.3,5.7,13.1,5.8,13,5.8z M2.2,4.1h9.5c-1.8-2.6-5.4-3.3-8-1.4
						C3.1,3.1,2.6,3.6,2.2,4.1z"/>
					<g id="Group_549" transform="translate(2.203 1.648)">
						<path id="Path_356" class="st2" d="M5.5,2.5c0-0.3,0-0.5,0-0.8c0-0.5-0.1-1.1-0.2-1.6C5.2,0,5,0,4.7,0C2.8,0,1.1,0.9,0,2.5
							H5.5z"/>
					</g>
				</g>
				<g id="Group_552" transform="translate(3.354 2.473)">
					<path id="Path_357" class="st0" d="M12.9,5.8C12,2.7,8.8,1,5.7,1.9c-1.9,0.6-3.3,2-3.9,3.9H12.9z"/>
					<path id="Path_358" class="st1" d="M13.9,7.4H0.8C0.4,7.4,0,7,0,6.6c0,0,0-0.1,0-0.1c0.5-4.1,4.2-6.9,8.3-6.4
						c3.4,0.4,6,3.1,6.4,6.4C14.8,6.9,14.4,7.4,13.9,7.4C14,7.4,13.9,7.4,13.9,7.4L13.9,7.4z M1.8,5.8h11.1C12,2.7,8.8,1,5.7,1.9
						C3.9,2.4,2.4,3.9,1.8,5.8z"/>
					<g id="Group_551" transform="translate(2.715 2.473)">
						<path id="Path_359" class="st3" d="M6.3,3.3l1.8-1.8c-1.9-1.9-5-2-7,0C0.7,1.9,0.2,2.6,0,3.3H6.3z"/>
					</g>
				</g>
				<g id="Group_554" transform="translate(10.715)">
					<path id="Path_360" class="st0" d="M1.7,8.2h11.4c0-0.3,0.1-0.5,0.1-0.8c0-3.2-2.5-5.8-5.7-5.8S1.7,4.1,1.6,7.3
						c0,0.1,0,0.1,0,0.2C1.6,7.7,1.7,8,1.7,8.2z"/>
					<path id="Path_361" class="st1" d="M13.8,9.9H1c-0.4,0-0.7-0.3-0.8-0.6c-1-4,1.3-8,5.3-9.1s8,1.3,9.1,5.3
						c0.3,1.2,0.3,2.5,0,3.8C14.5,9.6,14.2,9.9,13.8,9.9z M1.7,8.2h11.4c0-0.3,0.1-0.5,0.1-0.8c0-3.2-2.5-5.8-5.7-5.8
						S1.7,4.1,1.6,7.3c0,0.1,0,0.1,0,0.2C1.6,7.7,1.7,8,1.7,8.2z"/>
					<g id="Group_553" transform="translate(2.482 2.473)">
						<path id="Path_362" class="st3" d="M4.1,5.8l4.3-4.3c-1.9-1.9-5.1-1.9-7,0C0.3,2.6-0.2,4.2,0.1,5.8H4.1z"/>
					</g>
				</g>
				<g id="Group_555" transform="translate(1.648 8.242)">
					<path id="Path_363" class="st4" d="M23.9,10.7V14c0,0.9,0.7,1.6,1.6,1.6h6.6v6.6c0,0.9-0.7,1.6-1.6,1.6h-28
						c-0.9,0-1.6-0.7-1.6-1.6V2.5c0-0.9,0.7-1.6,1.6-1.6h28c0.9,0,1.6,0.7,1.6,1.6v6.6h-6.6C24.6,9.1,23.9,9.8,23.9,10.7z"/>
					<path id="Path_364" class="st1" d="M30.5,24.7h-28c-1.4,0-2.5-1.1-2.5-2.5V2.5C0,1.1,1.1,0,2.5,0h28C31.9,0,33,1.1,33,2.5v6.6
						c0,0.5-0.4,0.8-0.8,0.8h-6.6c-0.5,0-0.8,0.4-0.8,0.8V14c0,0.5,0.4,0.8,0.8,0.8h6.6c0.5,0,0.8,0.4,0.8,0.8v6.6
						C33,23.6,31.9,24.7,30.5,24.7z M2.5,1.6C2,1.6,1.7,2,1.6,2.5v19.8c0,0.5,0.4,0.8,0.8,0.8h28c0.5,0,0.8-0.4,0.8-0.8v-5.8h-5.8
						c-1.4,0-2.5-1.1-2.5-2.5v-3.3c0-1.4,1.1-2.5,2.5-2.5h5.8V2.5c0-0.5-0.4-0.8-0.8-0.8L2.5,1.6z"/>
				</g>
				<g id="Group_556" transform="translate(32.145 9.891)">
					<path id="Path_365" class="st5" d="M0,0v6.6h0.8V0.8C0.8,0.4,0.5,0,0,0z"/>
				</g>
				<g id="Group_557" transform="translate(3.297 18.133)">
					<path id="Path_366" class="st5" d="M21.4,4.1l0.2,1c0.3,1.4,1.6,2.3,3,2.3h2.5c0.9,0,1.6,0.7,1.6,1.6v0.8
						c0,0.9-0.7,1.6-1.6,1.6c0,0,0,0,0,0H15.3c-0.5,0-0.8-0.4-0.8-0.8c0-0.1,0-0.2,0-0.2c1.2-4.4-1.3-8.9-5.7-10.2
						C5.6-0.6,2,0.6,0,3.3v9.1c0,0.5,0.4,0.8,0.8,0.8h28c0.5,0,0.8-0.4,0.8-0.8V4.1H21.4z"/>
				</g>
				<g id="Group_561" transform="translate(0 16.485)">
					<g id="Group_559">
						<g id="Group_558">
							<ellipse id="Ellipse_98" class="st0" cx="8.2" cy="8.2" rx="6.6" ry="6.6"/>
							<path id="Path_367" class="st1" d="M8.2,16.5C3.7,16.5,0,12.8,0,8.2S3.7,0,8.2,0s8.2,3.7,8.2,8.2
								C16.5,12.8,12.8,16.5,8.2,16.5z M8.2,1.6c-3.6,0-6.6,3-6.6,6.6s3,6.6,6.6,6.6s6.6-3,6.6-6.6l0,0C14.8,4.6,11.9,1.7,8.2,1.6
								L8.2,1.6z"/>
						</g>
					</g>
					<g id="Group_560" transform="translate(2.473 2.473)">
						<path id="Path_368" class="st3" d="M1.7,9.8c-2.2-2.3-2.2-5.9,0-8.2c2.3-2.2,5.9-2.2,8.1,0L1.7,9.8z"/>
					</g>
				</g>
				<path id="Path_369" class="st1" d="M11.2,24.3c0.2-0.4,0.3-0.8,0.3-1.2c0-1.4-1.1-2.5-2.5-2.5c0-0.5-0.4-0.8-0.8-0.8
					c-0.5,0-0.8,0.4-0.8,0.8c0,0,0,0,0,0H5.8c-0.5,0-0.8,0.4-0.8,0.8c0,0.5,0.4,0.8,0.8,0.8v4.9c-0.5,0-0.8,0.4-0.8,0.8
					c0,0.5,0.4,0.8,0.8,0.8h1.6c0,0.5,0.4,0.8,0.8,0.8c0.5,0,0.8-0.4,0.8-0.8h0.8c1.4,0,2.5-1.1,2.5-2.5
					C12.4,25.5,11.9,24.7,11.2,24.3L11.2,24.3z M9.1,22.3c0.5,0,0.8,0.4,0.8,0.8c0,0.5-0.4,0.8-0.8,0.8H7.4v-1.6L9.1,22.3z
					 M9.9,27.2H7.4v-1.6h2.5c0.5,0,0.8,0.4,0.8,0.8C10.7,26.8,10.3,27.2,9.9,27.2L9.9,27.2z"/>
				<path id="Rectangle_40" class="st4" d="M27.6,17.3h5.9c1.1,0,2,0.9,2,2v2.6c0,1.1-0.9,2-2,2h-5.9c-1.1,0-2-0.9-2-2v-2.6
					C25.6,18.2,26.4,17.3,27.6,17.3z"/>
				<g id="Group_562" transform="translate(26.376 18.133)">
					<path id="Path_370" class="st5" d="M7.4,0v3.3c0,0.5-0.4,0.8-0.8,0.8H0c0,0.5,0.4,0.8,0.8,0.8h6.6c0.5,0,0.8-0.4,0.8-0.8V0.8
						C8.2,0.4,7.9,0,7.4,0z"/>
				</g>
				<g id="Group_563" transform="translate(28.024 19.782)">
					<ellipse id="Ellipse_99" class="st1" cx="0.8" cy="0.8" rx="0.8" ry="0.8"/>
				</g>
				<g id="Group_565" transform="translate(27.2 13.188)">
					<g id="Group_564">
						<path id="Path_371" class="st1" d="M3.7,0.8H0.4C0.2,0.8,0,0.6,0,0.4C0,0.2,0.2,0,0.4,0h3.3c0.2,0,0.4,0.2,0.4,0.4
							S3.9,0.8,3.7,0.8C3.7,0.8,3.7,0.8,3.7,0.8z"/>
					</g>
				</g>
				<path id="Path_372" class="st1" d="M24.3,10.7c-0.5,0-1,0.3-1.2,0.8h-6.3c-0.2,0-0.4,0.2-0.4,0.4s0.2,0.4,0.4,0.4h6.3
					c0.2,0.6,0.9,1,1.6,0.7s1-0.9,0.7-1.6C25.3,11,24.8,10.7,24.3,10.7z M24.3,12.4c-0.2,0-0.4-0.2-0.4-0.4c0-0.2,0.2-0.4,0.4-0.4
					c0.2,0,0.4,0.2,0.4,0.4S24.5,12.4,24.3,12.4C24.3,12.4,24.3,12.4,24.3,12.4z"/>
				<path id="Path_373" class="st1" d="M10.3,13.2c-0.5,0-1,0.3-1.2,0.8H3.3c-0.2,0-0.4,0.2-0.4,0.4c0,0.2,0.2,0.4,0.4,0.4h5.8
					c0.2,0.6,0.9,1,1.6,0.7c0.6-0.2,1-0.9,0.7-1.6C11.3,13.5,10.8,13.2,10.3,13.2z M10.3,14.8c-0.2,0-0.4-0.2-0.4-0.4
					c0-0.2,0.2-0.4,0.4-0.4c0.2,0,0.4,0.2,0.4,0.4S10.5,14.8,10.3,14.8L10.3,14.8z"/>
				<path id="Path_374" class="st1" d="M29.3,28.8h-4.6c-0.2-0.6-0.9-1-1.6-0.8s-1,0.9-0.8,1.6s0.9,1,1.6,0.8
					c0.4-0.1,0.6-0.4,0.8-0.8h4.6c0.2,0,0.4-0.2,0.4-0.4C29.7,29,29.5,28.8,29.3,28.8L29.3,28.8z M23.5,29.7c-0.2,0-0.4-0.2-0.4-0.4
					c0-0.2,0.2-0.4,0.4-0.4s0.4,0.2,0.4,0.4l0,0C23.9,29.5,23.7,29.7,23.5,29.7z"/>
				<path id="Path_375" class="st1" d="M33.8,16.5h-6.6c-0.3,0-0.6,0.1-0.9,0.2l-1.2-1.2c-0.4-0.4-0.9-0.6-1.5-0.6h-6.1
					c-0.3,0-0.6-0.1-0.9-0.4l-2.3-2.3c-0.4-0.4-0.9-0.6-1.5-0.6h-10c-0.2,0-0.4,0.2-0.4,0.4c0,0.2,0.2,0.4,0.4,0.4h10
					c0.3,0,0.6,0.1,0.9,0.4l2.3,2.3c0.4,0.4,0.9,0.6,1.5,0.6h6.1c0.3,0,0.6,0.1,0.9,0.4l1.1,1.1c-0.3,0.3-0.6,0.6-0.7,1h-4.4
					c-0.5,0-1.1,0.2-1.5,0.6l-0.7,0.7c-0.2,0.2-0.5,0.4-0.9,0.4H14c-0.2,0-0.4,0.2-0.4,0.4c0,0.2,0.2,0.4,0.4,0.4h3.4
					c0.5,0,1.1-0.2,1.5-0.6l0.7-0.7c0.2-0.2,0.5-0.4,0.9-0.4h4.3v2.5h-4.5c-0.2,0-0.4,0.2-0.4,0.4c0,0.2,0.2,0.4,0.4,0.4h4.5
					c0,1,0.7,2,1.6,2.3l-0.6,0.6c-0.2,0.2-0.5,0.4-0.9,0.4h-4.3c-0.2-0.6-0.9-1-1.6-0.8c-0.6,0.2-1,0.9-0.8,1.6s0.9,1,1.6,0.8
					c0.4-0.1,0.6-0.4,0.8-0.8h4.3c0.5,0,1.1-0.2,1.5-0.6l1-1h6.4c1.4,0,2.5-1.1,2.5-2.5V19C36.3,17.6,35.2,16.5,33.8,16.5z
					 M19.4,26.4c-0.2,0-0.4-0.2-0.4-0.4c0-0.2,0.2-0.4,0.4-0.4c0.2,0,0.4,0.2,0.4,0.4S19.6,26.4,19.4,26.4
					C19.4,26.4,19.4,26.4,19.4,26.4z M34.6,22.3c0,0.5-0.4,0.8-0.8,0.8h-6.6c-0.5,0-0.8-0.4-0.8-0.8V19c0-0.5,0.4-0.8,0.8-0.8h6.6
					c0.5,0,0.8,0.4,0.8,0.8L34.6,22.3z"/>
			</g>
		</g>
		<g class="st6">
			<path class="st1" d="M60,26.7c0,0.4-0.2,0.7-0.5,1c-0.3,0.2-0.6,0.4-1,0.4c-0.4,0-0.7-0.1-1-0.4c-0.2-0.3-0.3-0.6-0.3-1l1.3-8.9
				l-2,2.7c-0.4,0.6-0.8,0.9-1.4,0.9c-0.6,0-1-0.3-1.2-0.9l-1.2-2.8l-1.3,9c0,0.4-0.2,0.7-0.5,1c-0.3,0.2-0.6,0.4-1,0.4
				s-0.7-0.1-1-0.4s-0.3-0.6-0.3-1l1.8-13c0.1-0.4,0.2-0.7,0.5-1c0.3-0.2,0.6-0.4,1-0.4c0.6,0,1.1,0.3,1.4,0.9l2.1,4.8l3.5-4.8
				c0.4-0.6,1-0.9,1.6-0.9c0.4,0,0.7,0.1,1,0.4c0.3,0.3,0.4,0.6,0.3,1L60,26.7z"/>
			<path class="st1" d="M69.9,17.5c0.3-0.6,0.7-1,1.3-1c0.4,0,0.7,0.1,1,0.3c0.3,0.2,0.4,0.5,0.4,0.9c0,0.2,0,0.4-0.1,0.6l-5.2,10.9
				c-0.4,0.9-1,1.6-1.7,2.2c-0.7,0.6-1.4,0.9-2.2,0.9c-0.4,0-0.7-0.1-0.9-0.3c-0.2-0.2-0.3-0.5-0.3-0.9c0-0.7,0.4-1.2,1.1-1.4
				c0.3-0.1,0.6-0.3,0.9-0.5s0.5-0.5,0.7-0.8l0.4-0.9l-1.8-9.3c0-0.1,0-0.2,0-0.4c0-0.4,0.2-0.7,0.4-0.9c0.3-0.2,0.6-0.4,1-0.4
				c0.3,0,0.6,0.1,0.8,0.3c0.2,0.2,0.3,0.4,0.4,0.7l0.9,5.6l0.1,1.3h0l0.5-1.2L69.9,17.5z"/>
			<path class="st1" d="M76.3,26.7c0,0.4-0.2,0.7-0.5,1c-0.3,0.2-0.6,0.4-1,0.4s-0.7-0.1-1-0.4s-0.3-0.6-0.3-1l1.8-13
				c0.1-0.4,0.2-0.7,0.5-0.9s0.6-0.4,0.9-0.4h3.1c1.5,0,2.6,0.5,3.5,1.4c0.9,0.9,1.2,2.1,1,3.7c-0.2,1.5-0.8,2.8-1.8,3.7
				c-1,0.9-2.2,1.4-3.7,1.4h-1.8L76.3,26.7z M81.1,15.7c-0.3-0.5-0.8-0.7-1.5-0.7h-1.7l-0.7,4.9h1.7c0.7,0,1.3-0.2,1.7-0.7
				s0.7-1.1,0.8-1.8C81.6,16.7,81.5,16.1,81.1,15.7z"/>
			<path class="st1" d="M91.5,18.7c-0.3,0.2-0.6,0.4-1,0.4c-0.5,0-1,0.2-1.4,0.5c-0.4,0.3-0.6,0.8-0.7,1.4l-0.8,5.7
				c0,0.4-0.2,0.7-0.5,0.9c-0.3,0.3-0.6,0.4-1,0.4s-0.7-0.1-0.9-0.4c-0.2-0.3-0.3-0.6-0.3-0.9l1.3-9.2c0-0.3,0.2-0.6,0.4-0.7
				c0.2-0.2,0.5-0.3,0.8-0.3c0.3,0,0.5,0.2,0.8,0.5s0.4,0.5,0.6,0.5c0.1,0,0.4-0.2,0.8-0.5c0.4-0.3,0.8-0.5,1.3-0.5
				c0.4,0,0.6,0.1,0.9,0.4c0.2,0.3,0.3,0.6,0.3,1C92,18.2,91.8,18.5,91.5,18.7z"/>
			<path class="st1" d="M95.1,26.8c0,0.4-0.2,0.7-0.5,0.9s-0.6,0.4-1,0.4s-0.7-0.1-0.9-0.4c-0.2-0.3-0.3-0.6-0.3-0.9l1.2-8.9
				c0.1-0.4,0.2-0.7,0.5-0.9s0.6-0.4,1-0.4s0.7,0.1,0.9,0.4c0.2,0.3,0.3,0.6,0.3,0.9L95.1,26.8z M94.7,12c0.3-0.3,0.7-0.4,1.1-0.4
				s0.8,0.1,1.1,0.4c0.3,0.3,0.4,0.7,0.3,1.1c-0.1,0.5-0.3,0.8-0.6,1.1s-0.7,0.4-1.1,0.4c-0.4,0-0.8-0.1-1.1-0.4s-0.4-0.7-0.3-1.1
				C94.2,12.7,94.4,12.3,94.7,12z"/>
			<path class="st1" d="M104.8,17.5c0.3-0.7,0.7-1,1.3-1c0.4,0,0.7,0.1,1,0.3c0.3,0.2,0.4,0.5,0.4,0.9c0,0.2,0,0.4-0.1,0.5l-4.1,8.6
				c-0.4,0.8-1,1.2-1.8,1.2c-0.4,0-0.8-0.1-1-0.4c-0.3-0.2-0.4-0.5-0.5-0.9l-1.7-8.6c0-0.1,0-0.2,0-0.5c0-0.4,0.2-0.7,0.5-0.9
				c0.3-0.2,0.6-0.3,1-0.3c0.7,0,1.1,0.3,1.2,1l0.8,5.6l0.1,1.4h0l0.5-1.4L104.8,17.5z"/>
			<path class="st1" d="M109,27c-0.6-0.8-0.9-1.8-0.7-3l0.5-3.4c0.2-1.2,0.6-2.2,1.5-3c0.8-0.8,1.8-1.2,2.8-1.2
				c0.5,0,0.9,0.1,1.4,0.4c0.4,0.3,0.7,0.4,0.8,0.4c0.2,0,0.5-0.1,0.8-0.4c0.3-0.2,0.5-0.3,0.9-0.3c0.3,0,0.5,0.1,0.7,0.3
				c0.2,0.2,0.3,0.4,0.2,0.7l-1.3,9.5c0,0.3-0.2,0.6-0.4,0.7c-0.2,0.2-0.5,0.3-0.8,0.3c-0.2,0-0.5-0.1-0.7-0.4
				c-0.3-0.3-0.5-0.4-0.6-0.4s-0.4,0.1-0.8,0.3c-0.6,0.4-1.1,0.6-1.7,0.6C110.4,28.2,109.6,27.8,109,27z M114.7,20.6
				c0.1-0.5,0-0.9-0.3-1.2c-0.3-0.3-0.6-0.5-1.1-0.5c-0.4,0-0.8,0.2-1.2,0.5c-0.4,0.3-0.6,0.7-0.7,1.2L111,24
				c-0.1,0.4,0,0.8,0.3,1.2c0.3,0.3,0.6,0.5,1.1,0.5c0.4,0,0.9-0.2,1.2-0.5c0.4-0.3,0.6-0.7,0.6-1.2L114.7,20.6z"/>
			<path class="st1" d="M119.4,18.8c-0.2-0.2-0.2-0.5-0.2-0.8c0-0.3,0.1-0.6,0.3-0.8c0.2-0.2,0.4-0.3,0.7-0.4l1.2-0.2l0.7-2.1
				c0.2-0.7,0.7-1,1.4-1c0.3,0,0.5,0.1,0.7,0.3s0.3,0.5,0.2,0.8l-0.3,2h1.6c0.3,0,0.6,0.1,0.8,0.3c0.2,0.2,0.3,0.5,0.3,0.9
				c0,0.3-0.2,0.6-0.4,0.9c-0.2,0.2-0.5,0.3-0.8,0.3h-1.7l-0.7,5.2c-0.1,0.9,0.2,1.4,0.9,1.4c0.1,0,0.2,0,0.4-0.1
				c0.2,0,0.3-0.1,0.4-0.1c0.3,0,0.5,0.1,0.7,0.3c0.2,0.2,0.2,0.5,0.2,0.8c0,0.5-0.3,0.9-0.7,1.1s-1,0.4-1.5,0.4
				c-1.1,0-1.9-0.4-2.5-1.1c-0.5-0.7-0.7-1.7-0.6-2.8l0.7-5.2h-1C119.8,19.1,119.5,19,119.4,18.8z"/>
			<path class="st1" d="M128.6,27c-0.8-0.8-1.1-1.8-0.9-3l0.5-3.4c0.2-1.2,0.7-2.2,1.6-3c0.9-0.8,1.9-1.2,3.1-1.2s2.1,0.4,2.8,1.2
				c0.7,0.8,1,1.8,0.9,2.9l-0.2,1.2c0,0.4-0.2,0.7-0.5,1s-0.6,0.5-1,0.5h-4.4l-0.1,0.8c-0.1,0.5,0.1,0.9,0.3,1.2
				c0.3,0.3,0.6,0.5,1.1,0.5c0.6,0,1.1-0.1,1.7-0.4c0.3-0.2,0.6-0.3,0.9-0.3c0.3,0,0.6,0.1,0.8,0.4c0.2,0.2,0.3,0.5,0.3,0.9
				c0,0.5-0.4,0.9-1,1.3c-0.8,0.5-1.8,0.7-2.9,0.7C130.4,28.2,129.4,27.8,128.6,27z M130.8,21.2h3.1l0.1-0.6c0.1-0.4,0-0.8-0.3-1.1
				c-0.3-0.3-0.6-0.5-1-0.5c-0.4,0-0.8,0.2-1.2,0.5c-0.4,0.3-0.6,0.7-0.6,1.2L130.8,21.2z"/>
			<path class="st5" d="M142.1,26.9c-0.1,0.3-0.4,0.6-0.7,0.9s-0.6,0.3-1,0.3c-0.4,0-0.7-0.1-1-0.4s-0.4-0.6-0.4-0.9l0-13.1
				c0-0.4,0.1-0.7,0.4-1c0.3-0.3,0.6-0.4,1.1-0.4c0.4,0,0.7,0.1,0.9,0.3c0.2,0.2,0.4,0.5,0.3,0.8l-0.2,9.4l2.9-7.2
				c0.1-0.4,0.4-0.6,0.6-0.8s0.6-0.3,1-0.3c0.4,0,0.7,0.1,0.9,0.3s0.4,0.5,0.5,0.8l0.7,7.3l2.4-9.4c0.1-0.3,0.2-0.6,0.5-0.8
				c0.3-0.2,0.6-0.3,1-0.3c0.4,0,0.8,0.2,1,0.5c0.2,0.3,0.3,0.6,0.2,1l-3.6,13.1c-0.1,0.4-0.3,0.7-0.6,0.9c-0.3,0.2-0.7,0.4-1.1,0.4
				c-0.4,0-0.7-0.1-0.9-0.3c-0.2-0.2-0.4-0.5-0.4-0.8l-1.2-8.2L142.1,26.9z"/>
			<path class="st5" d="M154.5,27c-0.6-0.8-0.9-1.8-0.7-3l0.5-3.4c0.2-1.2,0.6-2.2,1.5-3s1.8-1.2,2.8-1.2c0.5,0,0.9,0.1,1.4,0.4
				c0.4,0.3,0.7,0.4,0.8,0.4c0.2,0,0.5-0.1,0.8-0.4c0.3-0.2,0.5-0.3,0.9-0.3c0.3,0,0.5,0.1,0.7,0.3c0.2,0.2,0.3,0.4,0.2,0.7
				l-1.3,9.5c0,0.3-0.2,0.6-0.4,0.7s-0.5,0.3-0.8,0.3c-0.2,0-0.5-0.1-0.7-0.4s-0.5-0.4-0.6-0.4c-0.2,0-0.4,0.1-0.8,0.3
				c-0.6,0.4-1.1,0.6-1.7,0.6C156,28.2,155.1,27.8,154.5,27z M160.2,20.6c0.1-0.5,0-0.9-0.3-1.2c-0.3-0.3-0.6-0.5-1.1-0.5
				c-0.4,0-0.8,0.2-1.2,0.5c-0.4,0.3-0.6,0.7-0.7,1.2l-0.5,3.4c-0.1,0.4,0,0.8,0.3,1.2c0.3,0.3,0.6,0.5,1.1,0.5
				c0.4,0,0.9-0.2,1.2-0.5c0.4-0.3,0.6-0.7,0.6-1.2L160.2,20.6z"/>
			<path class="st5" d="M167.5,26.8c0,0.4-0.2,0.7-0.5,0.9c-0.3,0.3-0.6,0.4-1,0.4s-0.7-0.1-0.9-0.4c-0.2-0.3-0.3-0.6-0.3-0.9
				l2-13.9c0-0.4,0.2-0.7,0.5-0.9c0.3-0.2,0.6-0.4,1-0.4s0.7,0.1,0.9,0.4c0.2,0.3,0.3,0.6,0.3,0.9L167.5,26.8z"/>
			<path class="st5" d="M173.1,26.8c0,0.4-0.2,0.7-0.5,0.9s-0.6,0.4-1,0.4c-0.4,0-0.7-0.1-0.9-0.4s-0.3-0.6-0.3-0.9l2-13.9
				c0-0.4,0.2-0.7,0.5-0.9c0.3-0.2,0.6-0.4,1-0.4c0.4,0,0.7,0.1,0.9,0.4s0.3,0.6,0.3,0.9L173.1,26.8z"/>
			<path class="st5" d="M177.2,27c-0.8-0.8-1.1-1.8-0.9-3l0.5-3.4c0.2-1.2,0.7-2.2,1.6-3c0.9-0.8,1.9-1.2,3.1-1.2s2.1,0.4,2.8,1.2
				c0.7,0.8,1,1.8,0.9,2.9l-0.2,1.2c0,0.4-0.2,0.7-0.5,1s-0.6,0.5-1,0.5h-4.4L179,24c-0.1,0.5,0.1,0.9,0.3,1.2s0.6,0.5,1.1,0.5
				c0.6,0,1.1-0.1,1.7-0.4c0.3-0.2,0.6-0.3,0.9-0.3c0.3,0,0.6,0.1,0.8,0.4c0.2,0.2,0.3,0.5,0.3,0.9c0,0.5-0.4,0.9-1,1.3
				c-0.8,0.5-1.8,0.7-2.9,0.7C179,28.2,178,27.8,177.2,27z M179.4,21.2h3.1l0.1-0.6c0.1-0.4,0-0.8-0.3-1.1c-0.3-0.3-0.6-0.5-1-0.5
				c-0.4,0-0.8,0.2-1.2,0.5s-0.6,0.7-0.6,1.2L179.4,21.2z"/>
			<path class="st5" d="M186.6,18.8c-0.2-0.2-0.2-0.5-0.2-0.8c0-0.3,0.1-0.6,0.3-0.8c0.2-0.2,0.4-0.3,0.7-0.4l1.2-0.2l0.7-2.1
				c0.2-0.7,0.7-1,1.4-1c0.3,0,0.5,0.1,0.7,0.3s0.3,0.5,0.2,0.8l-0.3,2h1.6c0.3,0,0.6,0.1,0.8,0.3c0.2,0.2,0.3,0.5,0.3,0.9
				c0,0.3-0.2,0.6-0.4,0.9c-0.2,0.2-0.5,0.3-0.8,0.3h-1.7l-0.7,5.2c-0.1,0.9,0.2,1.4,0.9,1.4c0.1,0,0.2,0,0.4-0.1
				c0.2,0,0.3-0.1,0.4-0.1c0.3,0,0.5,0.1,0.7,0.3c0.2,0.2,0.2,0.5,0.2,0.8c0,0.5-0.3,0.9-0.7,1.1c-0.5,0.3-1,0.4-1.5,0.4
				c-1.1,0-1.9-0.4-2.5-1.1c-0.5-0.7-0.7-1.7-0.6-2.8l0.7-5.2h-1C187,19.1,186.8,19,186.6,18.8z"/>
		</g>
	</g>
</g>
</svg>
