<?xml version="1.0" encoding="utf-8"?>
<!-- Generator: Adobe Illustrator 23.0.3, SVG Export Plug-In . SVG Version: 6.00 Build 0)  -->
<svg version="1.1" id="Layer_1" xmlns="http://www.w3.org/2000/svg" xmlns:xlink="http://www.w3.org/1999/xlink" x="0px" y="0px"
	 viewBox="0 0 205 34" style="enable-background:new 0 0 205 34;" xml:space="preserve">
<style type="text/css">
	.st0{clip-path:url(#SVGID_2_);}
	.st1{fill:#F7A32F;}
	.st2{fill:#002D49;}
	.st3{fill:#E98F25;}
	.st4{fill:#FFBD46;}
	.st5{fill:#D47724;}
	.st6{fill:#BD601A;}
	.st7{enable-background:new    ;}
</style>
<g>
	<defs>
		<rect id="SVGID_1_" x="0.6" y="-0.2" width="204.3" height="34"/>
	</defs>
	<clipPath id="SVGID_2_">
		<use xlink:href="#SVGID_1_"  style="overflow:visible;"/>
	</clipPath>
	<g id="MyprivateWallet_logo_" class="st0">
		<g id="wallet" transform="translate(0.044)">
			<g id="Group_566" transform="translate(0 0)">
				<g id="Group_550" transform="translate(18.617 4.121)">
					<path id="Path_354" class="st1" d="M7.7,1.5C5.8,1.5,4,2.4,2.9,3.9h9.5C11.3,2.4,9.6,1.5,7.7,1.5z"/>
					<path id="Path_355" class="st2" d="M13.8,5.6H1.5c-0.5,0-0.8-0.4-0.8-0.8c0-0.1,0-0.2,0.1-0.3c1.5-3.8,5.9-5.6,9.7-4.1
						c1.9,0.8,3.4,2.2,4.1,4.1c0.2,0.4,0,0.9-0.5,1.1C14,5.6,13.9,5.6,13.8,5.6z M2.9,3.9h9.5C10.6,1.3,7,0.7,4.4,2.5
						C3.8,2.9,3.3,3.4,2.9,3.9z"/>
					<g id="Group_549" transform="translate(2.203 1.648)">
						<path id="Path_356" class="st3" d="M6.2,2.3c0-0.3,0-0.5,0-0.8c0-0.5-0.1-1.1-0.2-1.6c-0.2,0-0.4,0-0.7,0
							c-1.9,0-3.7,0.9-4.8,2.5H6.2z"/>
					</g>
				</g>
				<g id="Group_552" transform="translate(3.354 2.473)">
					<path id="Path_357" class="st1" d="M13.6,5.6c-0.9-3.1-4.1-4.8-7.2-3.9C4.5,2.3,3,3.7,2.5,5.6H13.6z"/>
					<path id="Path_358" class="st2" d="M14.6,7.2H1.5C1,7.2,0.6,6.9,0.6,6.4c0,0,0-0.1,0-0.1c0.5-4.1,4.2-6.9,8.3-6.4
						c3.4,0.4,6,3.1,6.5,6.4C15.5,6.8,15.1,7.2,14.6,7.2C14.7,7.2,14.6,7.2,14.6,7.2L14.6,7.2z M2.5,5.6h11.1
						c-0.9-3.1-4.1-4.8-7.2-3.9C4.5,2.3,3,3.7,2.5,5.6z"/>
					<g id="Group_551" transform="translate(2.715 2.473)">
						<path id="Path_359" class="st4" d="M7,3.1l1.9-1.8c-1.9-1.9-5-2-7,0C1.3,1.8,0.9,2.4,0.6,3.1H7z"/>
					</g>
				</g>
				<g id="Group_554" transform="translate(10.715)">
					<path id="Path_360" class="st1" d="M2.4,8.1h11.5c0-0.3,0.1-0.5,0.1-0.8c0-3.2-2.5-5.8-5.7-5.8S2.4,3.9,2.3,7.1
						c0,0.1,0,0.1,0,0.2C2.3,7.5,2.3,7.8,2.4,8.1z"/>
					<path id="Path_361" class="st2" d="M14.5,9.7H1.7C1.3,9.7,1,9.5,0.9,9.1c-1-4,1.3-8,5.3-9.1s8.1,1.3,9.1,5.3
						c0.3,1.2,0.3,2.5,0,3.8C15.2,9.5,14.9,9.7,14.5,9.7z M2.4,8.1h11.5c0-0.3,0.1-0.5,0.1-0.8c0-3.2-2.5-5.8-5.7-5.8
						S2.4,3.9,2.3,7.1c0,0.1,0,0.1,0,0.2C2.3,7.5,2.3,7.8,2.4,8.1z"/>
					<g id="Group_553" transform="translate(2.482 2.473)">
						<path id="Path_362" class="st4" d="M4.8,5.6l4.3-4.3c-1.9-1.9-5.1-1.9-7,0C1,2.4,0.5,4,0.7,5.6H4.8z"/>
					</g>
				</g>
				<g id="Group_555" transform="translate(1.648 8.242)">
					<path id="Path_363" class="st5" d="M24.6,10.5v3.3c0,0.9,0.7,1.6,1.7,1.6h6.6v6.6c0,0.9-0.7,1.6-1.7,1.6H3.1
						c-0.9,0-1.7-0.7-1.7-1.6V2.3c0-0.9,0.7-1.6,1.7-1.6h28.2c0.9,0,1.7,0.7,1.7,1.6v6.6h-6.6C25.4,8.9,24.6,9.6,24.6,10.5z"/>
					<path id="Path_364" class="st2" d="M31.3,24.6H3.1c-1.4,0-2.5-1.1-2.5-2.5V2.3c0-1.4,1.1-2.5,2.5-2.5h28.2
						c1.4,0,2.5,1.1,2.5,2.5v6.6c0,0.5-0.4,0.8-0.8,0.8h-6.6c-0.5,0-0.8,0.4-0.8,0.8v3.3c0,0.5,0.4,0.8,0.8,0.8h6.6
						c0.5,0,0.8,0.4,0.8,0.8v6.6C33.7,23.4,32.6,24.6,31.3,24.6z M3.1,1.5c-0.5,0-0.8,0.4-0.8,0.8v19.8c0,0.5,0.4,0.8,0.8,0.8h28.2
						c0.5,0,0.8-0.4,0.8-0.8v-5.8h-5.8c-1.4,0-2.5-1.1-2.5-2.5v-3.3c0-1.4,1.1-2.5,2.5-2.5h5.8V2.3c0-0.5-0.4-0.8-0.8-0.8L3.1,1.5z"
						/>
				</g>
				<g id="Group_556" transform="translate(32.145 9.891)">
					<path id="Path_365" class="st6" d="M0.8-0.2v6.6h0.8V0.7C1.6,0.2,1.2-0.2,0.8-0.2z"/>
				</g>
				<g id="Group_557" transform="translate(3.297 18.133)">
					<path id="Path_366" class="st6" d="M22.2,3.9l0.2,1c0.3,1.4,1.6,2.3,3,2.3H28c0.9,0,1.7,0.7,1.7,1.6v0.8c0,0.9-0.7,1.6-1.7,1.6
						c0,0,0,0,0,0H16c-0.5,0-0.8-0.4-0.8-0.8c0-0.1,0-0.2,0-0.2c1.2-4.4-1.3-8.9-5.7-10.2c-3.3-0.9-6.8,0.3-8.9,3v9.1
						C0.6,12.6,1,13,1.5,13h28.2c0.5,0,0.8-0.4,0.8-0.8V3.9H22.2z"/>
				</g>
				<g id="Group_561" transform="translate(0 16.485)">
					<g id="Group_559">
						<g id="Group_558">
							<ellipse id="Ellipse_98" class="st1" cx="8.9" cy="8.1" rx="6.6" ry="6.6"/>
							<path id="Path_367" class="st2" d="M8.9,16.3c-4.6,0-8.3-3.7-8.3-8.2s3.7-8.2,8.3-8.2s8.3,3.7,8.3,8.2
								C17.2,12.6,13.5,16.3,8.9,16.3z M8.9,1.5c-3.7,0-6.6,3-6.6,6.6s3,6.6,6.6,6.6s6.6-3,6.6-6.6l0,0C15.5,4.4,12.5,1.5,8.9,1.5
								L8.9,1.5z"/>
						</g>
					</g>
					<g id="Group_560" transform="translate(2.473 2.473)">
						<path id="Path_368" class="st4" d="M2.3,9.7c-2.3-2.3-2.3-5.9,0-8.2c2.3-2.2,5.9-2.2,8.2,0L2.3,9.7z"/>
					</g>
				</g>
				<path id="Path_369" class="st2" d="M11.9,24.1c0.2-0.4,0.3-0.8,0.3-1.2c0-1.4-1.1-2.5-2.5-2.5c0-0.5-0.4-0.8-0.8-0.8
					c-0.5,0-0.8,0.4-0.8,0.8c0,0,0,0,0,0H6.4c-0.5,0-0.8,0.4-0.8,0.8c0,0.5,0.4,0.8,0.8,0.8V27c-0.5,0-0.8,0.4-0.8,0.8
					c0,0.5,0.4,0.8,0.8,0.8h1.7c0,0.5,0.4,0.8,0.8,0.8c0.5,0,0.8-0.4,0.8-0.8h0.8c1.4,0,2.5-1.1,2.5-2.5
					C13,25.4,12.6,24.6,11.9,24.1L11.9,24.1z M9.7,22.1c0.5,0,0.8,0.4,0.8,0.8c0,0.5-0.4,0.8-0.8,0.8H8.1v-1.6L9.7,22.1z M10.5,27
					H8.1v-1.6h2.5c0.5,0,0.8,0.4,0.8,0.8C11.4,26.7,11,27,10.5,27L10.5,27z"/>
				<path id="Rectangle_40" class="st5" d="M28.3,17.1h5.9c1.1,0,2,0.9,2,2v2.6c0,1.1-0.9,2-2,2h-5.9c-1.1,0-2-0.9-2-2v-2.6
					C26.3,18,27.2,17.1,28.3,17.1z"/>
				<g id="Group_562" transform="translate(26.376 18.133)">
					<path id="Path_370" class="st6" d="M8.2-0.2v3.3C8.2,3.6,7.8,4,7.4,4H0.7c0,0.5,0.4,0.8,0.8,0.8h6.6C8.6,4.8,9,4.4,9,4V0.7
						C9,0.2,8.6-0.2,8.2-0.2z"/>
				</g>
				<g id="Group_563" transform="translate(28.024 19.782)">
					<ellipse id="Ellipse_99" class="st2" cx="1.6" cy="0.7" rx="0.8" ry="0.8"/>
				</g>
				<g id="Group_565" transform="translate(27.2 13.188)">
					<g id="Group_564">
						<path id="Path_371" class="st2" d="M4.5,0.7H1.1c-0.2,0-0.4-0.2-0.4-0.4c0-0.2,0.2-0.4,0.4-0.4h3.3c0.2,0,0.4,0.2,0.4,0.4
							C4.9,0.5,4.7,0.7,4.5,0.7C4.5,0.7,4.5,0.7,4.5,0.7z"/>
					</g>
				</g>
				<path id="Path_372" class="st2" d="M25,10.5c-0.5,0-1,0.3-1.2,0.8h-6.3c-0.2,0-0.4,0.2-0.4,0.4s0.2,0.4,0.4,0.4h6.3
					c0.2,0.6,0.9,1,1.6,0.7c0.6-0.2,1-0.9,0.8-1.6C26,10.9,25.6,10.5,25,10.5z M25,12.2c-0.2,0-0.4-0.2-0.4-0.4
					c0-0.2,0.2-0.4,0.4-0.4c0.2,0,0.4,0.2,0.4,0.4S25.3,12.2,25,12.2L25,12.2z"/>
				<path id="Path_373" class="st2" d="M11,13c-0.5,0-1,0.3-1.2,0.8H3.9c-0.2,0-0.4,0.2-0.4,0.4c0,0.2,0.2,0.4,0.4,0.4h5.9
					c0.2,0.6,0.9,1,1.6,0.7c0.6-0.2,1-0.9,0.8-1.6C12,13.3,11.5,13,11,13z M11,14.7c-0.2,0-0.4-0.2-0.4-0.4c0-0.2,0.2-0.4,0.4-0.4
					s0.4,0.2,0.4,0.4S11.2,14.7,11,14.7L11,14.7z"/>
				<path id="Path_374" class="st2" d="M30,28.7h-4.6c-0.2-0.6-0.9-1-1.6-0.8c-0.6,0.2-1,0.9-0.8,1.6c0.2,0.6,0.9,1,1.6,0.8
					c0.4-0.1,0.6-0.4,0.8-0.8H30c0.2,0,0.4-0.2,0.4-0.4C30.4,28.9,30.2,28.7,30,28.7L30,28.7z M24.2,29.5c-0.2,0-0.4-0.2-0.4-0.4
					c0-0.2,0.2-0.4,0.4-0.4c0.2,0,0.4,0.2,0.4,0.4l0,0C24.6,29.3,24.4,29.5,24.2,29.5z"/>
				<path id="Path_375" class="st2" d="M34.6,16.3h-6.6c-0.3,0-0.6,0.1-0.9,0.2l-1.2-1.2c-0.4-0.4-0.9-0.6-1.5-0.6h-6.1
					c-0.3,0-0.6-0.1-0.9-0.4L15.1,12c-0.4-0.4-0.9-0.6-1.5-0.6H3.5c-0.2,0-0.4,0.2-0.4,0.4c0,0.2,0.2,0.4,0.4,0.4h10.1
					c0.3,0,0.6,0.1,0.9,0.4l2.3,2.3c0.4,0.4,0.9,0.6,1.5,0.6h6.1c0.3,0,0.6,0.1,0.9,0.4l1.1,1.1c-0.3,0.3-0.6,0.6-0.7,1h-4.4
					c-0.5,0-1.1,0.2-1.5,0.6L19,19.2c-0.2,0.2-0.5,0.4-0.9,0.4h-3.5c-0.2,0-0.4,0.2-0.4,0.4c0,0.2,0.2,0.4,0.4,0.4h3.5
					c0.5,0,1.1-0.2,1.5-0.6l0.7-0.7c0.2-0.2,0.5-0.4,0.9-0.4h4.3v2.5h-4.6c-0.2,0-0.4,0.2-0.4,0.4c0,0.2,0.2,0.4,0.4,0.4h4.6
					c0,1,0.7,2,1.6,2.3L26.5,25c-0.2,0.2-0.5,0.4-0.9,0.4h-4.4c-0.2-0.6-0.9-1-1.6-0.8s-1,0.9-0.8,1.6s0.9,1,1.6,0.8
					c0.4-0.1,0.6-0.4,0.8-0.8h4.4c0.5,0,1.1-0.2,1.5-0.6l1-1h6.5c1.4,0,2.5-1.1,2.5-2.5v-3.3C37,17.4,35.9,16.3,34.6,16.3z
					 M20.1,26.2c-0.2,0-0.4-0.2-0.4-0.4c0-0.2,0.2-0.4,0.4-0.4c0.2,0,0.4,0.2,0.4,0.4S20.3,26.2,20.1,26.2L20.1,26.2z M35.4,22.1
					c0,0.5-0.4,0.8-0.8,0.8h-6.6c-0.5,0-0.8-0.4-0.8-0.8v-3.3c0-0.5,0.4-0.8,0.8-0.8h6.6c0.5,0,0.8,0.4,0.8,0.8L35.4,22.1z"/>
			</g>
		</g>
		<g class="st7">
			<path class="st2" d="M60.9,26.5c0,0.4-0.2,0.7-0.5,1c-0.3,0.2-0.6,0.4-1,0.4s-0.7-0.1-1-0.4s-0.3-0.6-0.3-1l1.3-8.9l-2,2.7
				c-0.4,0.6-0.8,0.9-1.4,0.9c-0.6,0-1-0.3-1.2-0.9l-1.2-2.8l-1.3,9c0,0.4-0.2,0.7-0.5,1c-0.3,0.2-0.6,0.4-1,0.4s-0.7-0.1-1-0.4
				c-0.2-0.3-0.3-0.6-0.3-1l1.8-13c0.1-0.4,0.2-0.7,0.5-1c0.3-0.2,0.6-0.4,1-0.4c0.6,0,1.1,0.3,1.4,0.9l2.1,4.8l3.5-4.8
				c0.4-0.6,1-0.9,1.6-0.9c0.4,0,0.7,0.1,1,0.4s0.4,0.6,0.3,1L60.9,26.5z"/>
			<path class="st2" d="M70.9,17.3c0.3-0.6,0.7-1,1.3-1c0.4,0,0.7,0.1,1,0.3s0.4,0.5,0.4,0.9c0,0.2,0,0.4-0.1,0.6l-5.3,10.9
				c-0.4,0.9-1,1.6-1.7,2.2s-1.4,0.9-2.2,0.9c-0.4,0-0.7-0.1-0.9-0.3C63.1,31.7,63,31.4,63,31c0-0.7,0.4-1.2,1.1-1.4
				c0.3-0.1,0.6-0.3,0.9-0.5s0.5-0.5,0.7-0.8l0.4-0.9l-1.8-9.3c0-0.1,0-0.2,0-0.4c0-0.4,0.2-0.7,0.5-0.9c0.3-0.2,0.6-0.4,1.1-0.4
				c0.3,0,0.6,0.1,0.8,0.3c0.2,0.2,0.3,0.4,0.4,0.7l0.9,5.6l0.1,1.3h0l0.5-1.2L70.9,17.3z"/>
			<path class="st2" d="M77.3,26.5c0,0.4-0.2,0.7-0.5,1c-0.3,0.2-0.6,0.4-1,0.4s-0.7-0.1-1-0.4c-0.2-0.3-0.3-0.6-0.3-1l1.8-13
				c0.1-0.4,0.2-0.7,0.5-0.9c0.3-0.2,0.6-0.4,0.9-0.4h3.1c1.5,0,2.6,0.5,3.5,1.4c0.9,0.9,1.2,2.2,1,3.7c-0.2,1.5-0.8,2.8-1.8,3.7
				s-2.3,1.4-3.8,1.4h-1.8L77.3,26.5z M82.1,15.5c-0.3-0.5-0.8-0.7-1.5-0.7h-1.7l-0.7,4.9h1.7c0.7,0,1.3-0.2,1.8-0.7
				c0.5-0.5,0.7-1.1,0.8-1.8C82.6,16.5,82.4,16,82.1,15.5z"/>
			<path class="st2" d="M92.6,18.6c-0.3,0.2-0.6,0.4-1,0.4c-0.5,0-1,0.2-1.4,0.5c-0.4,0.3-0.6,0.8-0.7,1.4l-0.8,5.7
				c0,0.4-0.2,0.7-0.5,0.9s-0.6,0.4-1,0.4c-0.4,0-0.7-0.1-0.9-0.4c-0.2-0.3-0.3-0.6-0.3-0.9l1.3-9.2c0-0.3,0.2-0.6,0.4-0.7
				c0.2-0.2,0.5-0.3,0.8-0.3c0.3,0,0.5,0.2,0.8,0.5c0.3,0.3,0.5,0.5,0.6,0.5s0.4-0.2,0.8-0.5s0.9-0.5,1.3-0.5c0.4,0,0.6,0.1,0.9,0.4
				c0.2,0.3,0.3,0.6,0.3,1S92.9,18.3,92.6,18.6z"/>
			<path class="st2" d="M96.2,26.6c0,0.4-0.2,0.7-0.5,0.9s-0.6,0.4-1,0.4s-0.7-0.1-0.9-0.4c-0.2-0.3-0.3-0.6-0.3-0.9l1.2-8.9
				c0.1-0.4,0.2-0.7,0.5-0.9c0.3-0.2,0.6-0.4,1-0.4c0.4,0,0.7,0.1,0.9,0.4c0.2,0.3,0.3,0.6,0.3,0.9L96.2,26.6z M95.8,11.8
				c0.3-0.3,0.7-0.4,1.1-0.4c0.4,0,0.8,0.1,1.1,0.4c0.3,0.3,0.4,0.7,0.3,1.1s-0.3,0.8-0.6,1.1c-0.3,0.3-0.7,0.4-1.1,0.4
				c-0.4,0-0.8-0.1-1.1-0.4c-0.3-0.3-0.4-0.7-0.3-1.1S95.4,12.1,95.8,11.8z"/>
			<path class="st2" d="M105.9,17.4c0.3-0.7,0.7-1,1.3-1c0.4,0,0.7,0.1,1,0.3s0.4,0.5,0.4,0.9c0,0.2,0,0.4-0.1,0.5l-4.1,8.6
				c-0.4,0.8-1,1.2-1.8,1.2c-0.4,0-0.8-0.1-1.1-0.4c-0.3-0.2-0.4-0.5-0.5-0.9l-1.7-8.6c0-0.1,0-0.2,0-0.5c0-0.4,0.2-0.7,0.5-0.9
				c0.3-0.2,0.6-0.3,1.1-0.3c0.7,0,1.1,0.3,1.2,1l0.8,5.6l0.1,1.4h0l0.5-1.4L105.9,17.4z"/>
			<path class="st2" d="M110.1,26.8c-0.6-0.8-0.9-1.8-0.7-3l0.5-3.4c0.2-1.2,0.7-2.2,1.5-3c0.8-0.8,1.8-1.2,2.8-1.2
				c0.5,0,0.9,0.1,1.4,0.4s0.7,0.4,0.8,0.4c0.2,0,0.5-0.1,0.8-0.4c0.3-0.2,0.5-0.3,0.9-0.3c0.3,0,0.5,0.1,0.7,0.3
				c0.2,0.2,0.3,0.4,0.2,0.7l-1.3,9.5c0,0.3-0.2,0.6-0.4,0.7s-0.5,0.3-0.8,0.3c-0.2,0-0.5-0.1-0.8-0.4s-0.5-0.4-0.6-0.4
				c-0.2,0-0.4,0.1-0.8,0.3c-0.6,0.4-1.1,0.6-1.7,0.6C111.6,28,110.8,27.6,110.1,26.8z M115.8,20.4c0.1-0.5,0-0.9-0.3-1.2
				c-0.3-0.3-0.6-0.5-1.1-0.5c-0.4,0-0.8,0.2-1.2,0.5c-0.4,0.3-0.6,0.7-0.7,1.2l-0.5,3.4c-0.1,0.4,0,0.8,0.3,1.2
				c0.3,0.3,0.6,0.5,1.1,0.5c0.4,0,0.9-0.2,1.2-0.5c0.4-0.3,0.6-0.7,0.6-1.2L115.8,20.4z"/>
			<path class="st2" d="M120.6,18.6c-0.2-0.2-0.2-0.5-0.2-0.8c0-0.3,0.1-0.6,0.3-0.8c0.2-0.2,0.4-0.3,0.7-0.4l1.2-0.2l0.7-2.1
				c0.2-0.7,0.7-1,1.4-1c0.3,0,0.5,0.1,0.7,0.3c0.2,0.2,0.3,0.5,0.2,0.8l-0.3,2h1.6c0.3,0,0.6,0.1,0.8,0.3s0.3,0.5,0.3,0.9
				c0,0.3-0.2,0.6-0.4,0.9c-0.2,0.2-0.5,0.3-0.8,0.3h-1.7l-0.7,5.2c-0.1,0.9,0.2,1.4,0.9,1.4c0.1,0,0.2,0,0.4-0.1
				c0.2,0,0.3-0.1,0.4-0.1c0.3,0,0.5,0.1,0.7,0.3c0.2,0.2,0.2,0.5,0.2,0.8c0,0.5-0.3,0.9-0.8,1.1s-1,0.4-1.5,0.4
				c-1.1,0-1.9-0.4-2.5-1.1c-0.5-0.7-0.7-1.7-0.6-2.8l0.7-5.2h-1C120.9,18.9,120.7,18.8,120.6,18.6z"/>
			<path class="st2" d="M129.8,26.8c-0.8-0.8-1.1-1.8-0.9-3l0.5-3.4c0.2-1.2,0.7-2.2,1.6-3c0.9-0.8,2-1.2,3.1-1.2s2.1,0.4,2.8,1.2
				s1,1.8,0.9,2.9l-0.2,1.2c0,0.4-0.2,0.7-0.5,1c-0.3,0.3-0.6,0.5-1,0.5h-4.4l-0.1,0.8c-0.1,0.5,0.1,0.9,0.3,1.2
				c0.3,0.3,0.6,0.5,1.1,0.5c0.6,0,1.1-0.1,1.7-0.4c0.3-0.2,0.6-0.3,0.9-0.3c0.3,0,0.6,0.1,0.8,0.4c0.2,0.2,0.3,0.5,0.3,0.9
				c0,0.5-0.4,0.9-1,1.3c-0.8,0.5-1.8,0.7-2.9,0.7C131.6,28,130.6,27.6,129.8,26.8z M132,21h3.1l0.1-0.6c0.1-0.4,0-0.8-0.3-1.1
				c-0.3-0.3-0.6-0.5-1-0.5c-0.4,0-0.8,0.2-1.2,0.5s-0.6,0.7-0.6,1.2L132,21z"/>
		</g>
		<g class="st7">
			<path class="st6" d="M143.4,26.7c-0.1,0.3-0.4,0.6-0.7,0.9c-0.3,0.2-0.6,0.3-1,0.3c-0.4,0-0.8-0.1-1-0.4s-0.4-0.6-0.4-0.9l0-13.1
				c0-0.4,0.1-0.7,0.4-1c0.3-0.3,0.6-0.4,1.1-0.4c0.4,0,0.7,0.1,0.9,0.3c0.2,0.2,0.4,0.5,0.3,0.8l-0.2,9.4l2.9-7.2
				c0.1-0.4,0.4-0.6,0.6-0.8s0.6-0.3,1-0.3c0.4,0,0.7,0.1,0.9,0.3c0.3,0.2,0.4,0.5,0.5,0.8l0.7,7.3l2.4-9.4c0.1-0.3,0.3-0.6,0.5-0.8
				c0.3-0.2,0.6-0.3,1-0.3c0.4,0,0.8,0.2,1,0.5c0.2,0.3,0.3,0.6,0.2,1L151,26.7c-0.1,0.4-0.3,0.7-0.6,0.9c-0.3,0.2-0.7,0.4-1.1,0.4
				c-0.4,0-0.7-0.1-0.9-0.3c-0.2-0.2-0.4-0.5-0.4-0.8l-1.2-8.2L143.4,26.7z"/>
			<path class="st6" d="M155.9,26.8c-0.6-0.8-0.9-1.8-0.7-3l0.5-3.4c0.2-1.2,0.7-2.2,1.5-3c0.8-0.8,1.8-1.2,2.8-1.2
				c0.5,0,0.9,0.1,1.4,0.4s0.7,0.4,0.8,0.4c0.2,0,0.5-0.1,0.8-0.4c0.3-0.2,0.5-0.3,0.9-0.3c0.3,0,0.5,0.1,0.7,0.3
				c0.2,0.2,0.3,0.4,0.2,0.7l-1.3,9.5c0,0.3-0.2,0.6-0.4,0.7s-0.5,0.3-0.8,0.3c-0.2,0-0.5-0.1-0.8-0.4s-0.5-0.4-0.6-0.4
				c-0.2,0-0.4,0.1-0.8,0.3c-0.6,0.4-1.1,0.6-1.7,0.6C157.3,28,156.5,27.6,155.9,26.8z M161.6,20.4c0.1-0.5,0-0.9-0.3-1.2
				c-0.3-0.3-0.6-0.5-1.1-0.5c-0.4,0-0.8,0.2-1.2,0.5c-0.4,0.3-0.6,0.7-0.7,1.2l-0.5,3.4c-0.1,0.4,0,0.8,0.3,1.2
				c0.3,0.3,0.6,0.5,1.1,0.5c0.4,0,0.9-0.2,1.2-0.5c0.4-0.3,0.6-0.7,0.6-1.2L161.6,20.4z"/>
			<path class="st6" d="M168.9,26.6c0,0.4-0.2,0.7-0.5,0.9s-0.6,0.4-1,0.4c-0.4,0-0.7-0.1-0.9-0.4c-0.2-0.3-0.3-0.6-0.3-0.9l2-13.9
				c0-0.4,0.2-0.7,0.5-0.9c0.3-0.2,0.6-0.4,1-0.4c0.4,0,0.7,0.1,0.9,0.4c0.2,0.3,0.3,0.6,0.3,0.9L168.9,26.6z"/>
			<path class="st6" d="M174.5,26.6c0,0.4-0.2,0.7-0.5,0.9s-0.6,0.4-1,0.4c-0.4,0-0.7-0.1-0.9-0.4c-0.2-0.3-0.3-0.6-0.3-0.9l2-13.9
				c0-0.4,0.2-0.7,0.5-0.9c0.3-0.2,0.6-0.4,1-0.4c0.4,0,0.7,0.1,0.9,0.4c0.2,0.3,0.3,0.6,0.3,0.9L174.5,26.6z"/>
			<path class="st6" d="M178.6,26.8c-0.8-0.8-1.1-1.8-0.9-3l0.5-3.4c0.2-1.2,0.7-2.2,1.6-3c0.9-0.8,2-1.2,3.1-1.2s2.1,0.4,2.8,1.2
				s1,1.8,0.9,2.9l-0.2,1.2c0,0.4-0.2,0.7-0.5,1c-0.3,0.3-0.6,0.5-1,0.5h-4.4l-0.1,0.8c-0.1,0.5,0.1,0.9,0.3,1.2
				c0.3,0.3,0.6,0.5,1.1,0.5c0.6,0,1.1-0.1,1.7-0.4c0.3-0.2,0.6-0.3,0.9-0.3c0.3,0,0.6,0.1,0.8,0.4c0.2,0.2,0.3,0.5,0.3,0.9
				c0,0.5-0.4,0.9-1,1.3c-0.8,0.5-1.8,0.7-2.9,0.7C180.4,28,179.4,27.6,178.6,26.8z M180.8,21h3.1l0.1-0.6c0.1-0.4,0-0.8-0.3-1.1
				c-0.3-0.3-0.6-0.5-1-0.5c-0.4,0-0.8,0.2-1.2,0.5s-0.6,0.7-0.6,1.2L180.8,21z"/>
			<path class="st6" d="M188.1,18.6c-0.2-0.2-0.2-0.5-0.2-0.8c0-0.3,0.1-0.6,0.3-0.8c0.2-0.2,0.4-0.3,0.7-0.4l1.2-0.2l0.7-2.1
				c0.2-0.7,0.7-1,1.4-1c0.3,0,0.5,0.1,0.7,0.3c0.2,0.2,0.3,0.5,0.2,0.8l-0.3,2h1.6c0.3,0,0.6,0.1,0.8,0.3s0.3,0.5,0.3,0.9
				c0,0.3-0.2,0.6-0.4,0.9c-0.2,0.2-0.5,0.3-0.8,0.3h-1.7l-0.7,5.2c-0.1,0.9,0.2,1.4,0.9,1.4c0.1,0,0.2,0,0.4-0.1
				c0.2,0,0.3-0.1,0.4-0.1c0.3,0,0.5,0.1,0.7,0.3c0.2,0.2,0.2,0.5,0.2,0.8c0,0.5-0.3,0.9-0.8,1.1s-1,0.4-1.5,0.4
				c-1.1,0-1.9-0.4-2.5-1.1s-0.7-1.7-0.6-2.8l0.7-5.2h-1C188.5,18.9,188.3,18.8,188.1,18.6z"/>
			<path class="st6" d="M196.8,27.4c-0.7-0.4-1-0.8-0.9-1.4c0-0.4,0.2-0.6,0.4-0.8c0.2-0.2,0.5-0.3,0.8-0.3c0.2,0,0.5,0.1,0.8,0.2
				c0.6,0.3,1.1,0.4,1.5,0.4c0.4,0,0.7-0.1,1-0.3c0.3-0.2,0.5-0.5,0.5-0.8c0-0.3-0.1-0.6-0.3-0.8c-0.3-0.2-0.7-0.4-1.2-0.6
				c-0.9-0.3-1.6-0.7-2.1-1.2c-0.5-0.5-0.7-1.2-0.6-2c0.1-1,0.6-1.9,1.5-2.5c0.8-0.7,1.8-1,2.8-1c0.8,0,1.6,0.2,2.4,0.6
				c0.5,0.3,0.8,0.8,0.8,1.3c0,0.3-0.1,0.6-0.4,0.8c-0.2,0.2-0.5,0.3-0.9,0.3c-0.3,0-0.6-0.1-1-0.3c-0.4-0.2-0.8-0.3-1.1-0.3
				s-0.7,0.1-1,0.3c-0.3,0.2-0.5,0.5-0.5,0.8c0,0.2,0,0.3,0.1,0.4c0.1,0.1,0.2,0.2,0.4,0.3c0.2,0.1,0.3,0.2,0.5,0.2
				c0.1,0,0.3,0.1,0.6,0.2c1,0.3,1.7,0.7,2.2,1.2s0.7,1.2,0.6,2.2c-0.2,1.1-0.6,1.9-1.4,2.6s-1.8,0.9-2.9,0.9
				C198.3,28,197.5,27.8,196.8,27.4z"/>
		</g>
	</g>
</g>
</svg>
