<?xml version="1.0"?>
<svg xmlns="http://www.w3.org/2000/svg" xmlns:xlink="http://www.w3.org/1999/xlink" version="1.1" id="Capa_1" x="0px" y="0px" viewBox="0 0 320.014 320.014" style="enable-background:new 0 0 320.014 320.014;" xml:space="preserve" width="512px" height="512px" class=""><g><path d="M312.558,53.432c-10.318-12.375-29.976-15.365-56.401-8.926C228.958,20.459,193.24,5.84,154.167,5.84  C69.159,5.84,0,74.999,0,160.007c0,28.548,7.809,55.303,21.39,78.258c-12.486,26.324-13.589,47.374-2.834,60.274  c6.814,8.172,17.474,12.313,31.692,12.313c0.183,0,0.367-0.001,0.551-0.002c4.142-0.031,7.475-3.414,7.444-7.556  c-0.031-4.123-3.383-7.444-7.499-7.444c-0.019,0-0.038,0-0.057,0c-9.801,0.079-16.723-2.254-20.611-6.917  c-5.779-6.931-5.23-19.598,1.21-35.937c28.176,37.142,72.771,61.178,122.88,61.178c85.008,0,154.167-69.159,154.167-154.167  c0-39.473-14.919-75.523-39.405-102.825c15.408-2.468,26.771-0.547,32.109,5.855c4.047,4.854,5.012,12.478,2.867,22.659  c-0.854,4.054,1.74,8.031,5.793,8.885c4.058,0.86,8.032-1.739,8.885-5.793C321.72,73.887,319.694,61.99,312.558,53.432z   M272.854,87.413c11.754,19.146,19.008,41.338,20.276,65.094h-71.332c-0.465-23.033-3.08-45.139-7.589-65h57.514  C272.108,87.507,272.484,87.469,272.854,87.413z M273.338,231.81c-0.521-0.115-1.06-0.179-1.616-0.179h-57.309  c4.387-19.633,6.927-41.432,7.385-64.124h71.332C291.879,190.936,284.808,212.844,273.338,231.81z M154.167,299.174  c-12.653,0-25.641-13.962-35.634-38.306c-1.846-4.496-3.54-9.266-5.102-14.237h81.472c-1.562,4.971-3.256,9.741-5.102,14.237  C179.808,285.212,166.819,299.174,154.167,299.174z M109.309,231.631c-4.611-19.37-7.289-41.222-7.768-64.124h105.25  c-0.479,22.902-3.156,44.754-7.768,64.124H109.309z M35.483,87.408c0.38,0.059,0.767,0.099,1.163,0.099h57.479  c-4.506,19.846-7.12,41.933-7.588,64.947c-0.018,0.018-0.036,0.036-0.054,0.053h-71.28C16.472,128.748,23.727,106.555,35.483,87.408  z M154.167,20.84c12.653,0,25.641,13.962,35.634,38.306c1.49,3.629,2.88,7.435,4.186,11.377c-1.167,0.652-2.336,1.314-3.507,1.984  h-76.769c1.486-4.653,3.085-9.131,4.822-13.361C128.525,34.802,141.514,20.84,154.167,20.84z M198.82,87.507  c4.74,19.584,7.485,41.755,7.971,65h-98.665c6.874-6.399,14.151-12.822,21.83-19.224c21.369-17.815,43.335-33.352,64.534-45.776  H198.82z M166.211,87.507c-15.306,10.145-30.744,21.653-45.86,34.255c-6.24,5.202-12.304,10.493-18.174,15.843  c1.136-17.804,3.621-34.746,7.336-50.098H166.211z M93.92,231.631H41.892c10.22-17.442,25.272-37.288,44.831-57.938  C87.482,194.157,89.933,213.79,93.92,231.631z M203.677,53.449c-4.724-11.508-10.148-21.078-16.101-28.546  c18.931,4.683,36.345,13.249,51.348,24.805c-1.563,0.555-3.138,1.128-4.737,1.738c-8.64,3.296-17.607,7.299-26.788,11.935  C206.222,59.967,204.988,56.642,203.677,53.449z M120.757,24.904c-5.953,7.468-11.377,17.038-16.101,28.546  c-2.448,5.964-4.652,12.351-6.631,19.058h-51.99C64.829,49.326,90.908,32.287,120.757,24.904z M15.204,167.507h56.787  c-16.737,18.109-30.808,36.308-41.288,53.581c-0.291,0.479-0.566,0.952-0.85,1.428C21.422,205.816,16.255,187.2,15.204,167.507z   M45.329,246.631h52.442c2.042,7.028,4.331,13.711,6.885,19.934c4.724,11.508,10.148,21.078,16.101,28.546  C90.533,287.634,64.173,270.258,45.329,246.631z M187.576,295.11c5.953-7.468,11.377-17.038,16.101-28.546  c2.554-6.222,4.842-12.906,6.885-19.934h52.442C244.16,270.258,217.8,287.634,187.576,295.11z M262.298,72.507h-39.36  c5.65-2.627,11.193-4.984,16.595-7.045c4.327-1.65,8.5-3.075,12.509-4.289C255.662,64.76,259.085,68.544,262.298,72.507z" data-original="#222220" class="active-path" data-old_color="#02a9c0" fill="#02a9c0"/></g> </svg>
